<svg width="50" height="40" viewBox="0 0 50 40" fill="none" xmlns="http://www.w3.org/2000/svg">
<g clip-path="url(#clip0_128_1482)">
<path d="M49.2302 3.07654H43.0762V9.23062H49.2302V3.07654Z" fill="#DAE6EA"/>
<path d="M49.2302 3.07654H43.0762V9.23062H49.2302V3.07654Z" fill="#DAE6EA"/>
<path d="M36.9236 27.6918H30.7695V33.8459H36.9236V27.6918Z" fill="#DAE6EA"/>
<path d="M30.7693 33.8459H24.6152V40H30.7693V33.8459Z" fill="#DAE6EA"/>
<path d="M30.7693 33.8459H24.6152V40H30.7693V33.8459Z" fill="#DAE6EA"/>
<path d="M36.9224 15.3847H24.6152V21.5388H36.9224V15.3847Z" fill="#DAE6EA"/>
<path d="M36.9236 15.3847H30.7695V21.5388H36.9236V15.3847Z" fill="#DAE6EA"/>
<path d="M43.0767 9.23062H30.7695V15.3847H43.0767V9.23062Z" fill="#DAE6EA"/>
<path d="M43.0769 9.23062H36.9229V15.3847H43.0769V9.23062Z" fill="#DAE6EA"/>
<path d="M49.23 21.5388H36.9229V27.6929H49.23V21.5388Z" fill="#DAE6EA"/>
<path d="M49.2312 21.5388H43.0771V27.6929H49.2312V21.5388Z" fill="#DAE6EA"/>
<path d="M43.0767 27.6928H30.7695V33.8469H43.0767V27.6928Z" fill="#DAE6EA"/>
<path d="M43.0769 27.6928H36.9229V33.8469H43.0769V27.6928Z" fill="#DAE6EA"/>
<path d="M6.15408 40H0V33.8459C0 27.0593 5.52155 21.5388 12.3072 21.5388C19.0928 21.5388 24.6143 27.0603 24.6143 33.8459H18.4602C18.4602 30.4531 15.7 27.6918 12.3062 27.6918C8.91235 27.6918 6.15208 30.4521 6.15208 33.8459V40H6.15408Z" fill="#EC3B3B"/>
<path d="M12.3084 33.8459H6.1543V40H12.3084V33.8459Z" fill="#EC3B3B"/>
<path d="M12.3068 18.4612C7.21659 18.4612 3.07617 14.3208 3.07617 9.23062C3.07617 4.14042 7.21759 0 12.3068 0C17.396 0 21.5374 4.14042 21.5374 9.23062C21.5374 14.3208 17.396 18.4612 12.3068 18.4612ZM12.3068 6.15408C10.6104 6.15408 9.23025 7.53422 9.23025 9.23062C9.23025 10.927 10.6104 12.3072 12.3068 12.3072C14.0032 12.3072 15.3833 10.927 15.3833 9.23062C15.3833 7.53422 14.0032 6.15408 12.3068 6.15408Z" fill="#EC3B3B"/>
</g>
<defs>
<clipPath id="clip0_128_1482">
<rect width="49.2306" height="40" fill="white"/>
</clipPath>
</defs>
</svg>
