<svg width="149" height="79" viewBox="0 0 149 79" fill="none" xmlns="http://www.w3.org/2000/svg">
<rect width="149" height="79" fill="#1E1E1E"/>
<rect width="1440" height="1230" transform="translate(-808 -400)" fill="#07153B"/>
<rect x="-402.75" y="-243.75" width="954.5" height="430.5" rx="15.75" stroke="#DAE6EA" stroke-opacity="0.2" stroke-width="0.5"/>
<g clip-path="url(#clip0_0_1)">
<path d="M144.823 74.7259H74.5V67.674H137.928V11.326H74.5V4.2724H144.823V74.7259Z" fill="#EC3B3B"/>
<path d="M149 79H0V0H149V79ZM0.163981 78.8323H148.836V0.167742H0.163981V78.8323Z" fill="#EC3B3B"/>
<path d="M141.376 32.1613C128.244 32.1613 117.561 21.2328 117.561 7.80003H124.454C124.454 17.3446 132.045 25.1094 141.376 25.1094V32.1613Z" fill="#EC3B3B"/>
<path d="M124.454 71.3358H117.561C117.561 57.903 128.244 46.9746 141.376 46.9746V54.0265C132.045 54.0265 124.454 61.7913 124.454 71.3358Z" fill="#EC3B3B"/>
<path d="M74.5008 62.0463H72.1641V54.9944H74.5008C82.8524 54.9944 89.6478 48.0431 89.6478 39.5C89.6478 30.9569 82.8524 24.0056 74.5008 24.0056H72.1641V16.9537H74.5008C86.6535 16.9537 96.5415 27.0686 96.5415 39.5C96.5415 51.9314 86.6535 62.0463 74.5008 62.0463Z" fill="#DAE6EA"/>
<path d="M11.0715 4.2724H4.17773V11.3243H11.0715V4.2724Z" fill="#DAE6EA"/>
<path d="M23.7571 4.2724H16.8633V11.3243H23.7571V4.2724Z" fill="#DAE6EA"/>
<path d="M36.4426 4.2724H29.5488V11.3243H36.4426V4.2724Z" fill="#DAE6EA"/>
<path d="M49.1282 4.2724H42.2344V11.3243H49.1282V4.2724Z" fill="#DAE6EA"/>
<path d="M61.8137 4.2724H54.9199V11.3243H61.8137V4.2724Z" fill="#DAE6EA"/>
<path d="M74.4992 4.2724H67.6055V11.3243H74.4992V4.2724Z" fill="#DAE6EA"/>
<path d="M11.0715 16.9537H4.17773V24.0056H11.0715V16.9537Z" fill="#DAE6EA"/>
<path d="M23.7571 16.9537H16.8633V24.0056H23.7571V16.9537Z" fill="#DAE6EA"/>
<path d="M36.4426 16.9537H29.5488V24.0056H36.4426V16.9537Z" fill="#EC3B3B"/>
<path d="M49.1282 16.9537H42.2344V24.0056H49.1282V16.9537Z" fill="#DAE6EA"/>
<path d="M61.8137 16.9537H54.9199V24.0056H61.8137V16.9537Z" fill="#DAE6EA"/>
<path d="M74.4992 16.9537H67.6055V24.0056H74.4992V16.9537Z" fill="#EC3B3B"/>
<path d="M11.0715 29.6334H4.17773V36.6853H11.0715V29.6334Z" fill="#DAE6EA"/>
<path d="M23.7571 29.6334H16.8633V36.6853H23.7571V29.6334Z" fill="#EC3B3B"/>
<path d="M36.4426 29.6334H29.5488V36.6853H36.4426V29.6334Z" fill="#DAE6EA"/>
<path d="M49.1282 29.6334H42.2344V36.6853H49.1282V29.6334Z" fill="#DAE6EA"/>
<path d="M61.8137 29.6334H54.9199V36.6853H61.8137V29.6334Z" fill="#EC3B3B"/>
<path d="M74.4992 29.6334H67.6055V36.6853H74.4992V29.6334Z" fill="#DAE6EA"/>
<path d="M11.0715 42.313H4.17773V49.3649H11.0715V42.313Z" fill="#DAE6EA"/>
<path d="M23.7571 42.313H16.8633V49.3649H23.7571V42.313Z" fill="#EC3B3B"/>
<path d="M36.4426 42.313H29.5488V49.3649H36.4426V42.313Z" fill="#DAE6EA"/>
<path d="M49.1282 42.313H42.2344V49.3649H49.1282V42.313Z" fill="#DAE6EA"/>
<path d="M61.8137 42.313H54.9199V49.3649H61.8137V42.313Z" fill="#EC3B3B"/>
<path d="M74.4992 42.313H67.6055V49.3649H74.4992V42.313Z" fill="#DAE6EA"/>
<path d="M11.0715 54.9927H4.17773V62.0446H11.0715V54.9927Z" fill="#DAE6EA"/>
<path d="M23.7571 54.9927H16.8633V62.0446H23.7571V54.9927Z" fill="#DAE6EA"/>
<path d="M36.4426 54.9927H29.5488V62.0446H36.4426V54.9927Z" fill="#EC3B3B"/>
<path d="M49.1282 54.9927H42.2344V62.0446H49.1282V54.9927Z" fill="#DAE6EA"/>
<path d="M61.8137 54.9927H54.9199V62.0446H61.8137V54.9927Z" fill="#DAE6EA"/>
<path d="M74.4992 54.9927H67.6055V62.0446H74.4992V54.9927Z" fill="#EC3B3B"/>
<path d="M11.0715 67.674H4.17773V74.7259H11.0715V67.674Z" fill="#DAE6EA"/>
<path d="M23.7571 67.674H16.8633V74.7259H23.7571V67.674Z" fill="#DAE6EA"/>
<path d="M36.4426 67.674H29.5488V74.7259H36.4426V67.674Z" fill="#DAE6EA"/>
<path d="M49.1282 67.674H42.2344V74.7259H49.1282V67.674Z" fill="#DAE6EA"/>
<path d="M61.8137 67.674H54.9199V74.7259H61.8137V67.674Z" fill="#DAE6EA"/>
<path d="M74.4992 67.674H67.6055V74.7259H74.4992V67.674Z" fill="#DAE6EA"/>
</g>
<defs>
<clipPath id="clip0_0_1">
<rect width="149" height="79" fill="white"/>
</clipPath>
</defs>
</svg>
