<svg width="57" height="40" viewBox="0 0 57 40" fill="none" xmlns="http://www.w3.org/2000/svg">
<g clip-path="url(#clip0_128_1559)">
<path d="M37.5087 40H32.5244V35.0158C32.5244 31.01 29.2655 27.75 25.2587 27.75C21.252 27.75 17.993 31.009 17.993 35.0158H13.0088C13.0088 28.2613 18.5043 22.7668 25.2578 22.7668C32.0113 22.7668 37.5067 28.2613 37.5067 35.0158V40H37.5087Z" fill="#EC3B3B"/>
<path d="M24.4925 35.0167H17.9873V40.001H24.4925V35.0167Z" fill="#EC3B3B"/>
<path d="M25.2595 17.9937C20.2988 17.9937 16.2627 13.9576 16.2627 8.99685C16.2627 4.03607 20.2988 0 25.2595 0C30.2203 0 34.2564 4.03607 34.2564 8.99685C34.2564 13.9576 30.2203 17.9937 25.2595 17.9937ZM25.2595 4.98424C23.0465 4.98424 21.2469 6.78478 21.2469 8.99685C21.2469 11.2089 23.0475 13.0095 25.2595 13.0095C27.4716 13.0095 29.2722 11.2089 29.2722 8.99685C29.2722 6.78478 27.4716 4.98424 25.2595 4.98424Z" fill="#EC3B3B"/>
<path d="M13.0106 35.0167H4.98438V40.001H13.0106V35.0167Z" fill="#EC3B3B"/>
<path d="M4.98424 4.98425H0V35.0168H4.98424V4.98425Z" fill="#EC3B3B"/>
<path d="M13.0106 0H4.98438V4.98424H13.0106V0Z" fill="#EC3B3B"/>
<path d="M45.5344 35.0167H35.0166V40.001H45.5344V35.0167Z" fill="#EC3B3B"/>
<path d="M50.5184 4.98425H45.5342V35.0168H50.5184V4.98425Z" fill="#EC3B3B"/>
<path d="M45.535 0H37.5088V4.98424H45.535V0Z" fill="#EC3B3B"/>
<path d="M40.9664 27.3249L33.1504 19.5078L36.6743 15.984L40.9664 20.2761L53.1734 8.06921L56.6972 11.5931L40.9664 27.3249Z" fill="#DAE6EA"/>
</g>
<defs>
<clipPath id="clip0_128_1559">
<rect width="56.6975" height="40" fill="white"/>
</clipPath>
</defs>
</svg>
